<svg width="13" height="11" viewBox="0 0 13 11" fill="none" xmlns="http://www.w3.org/2000/svg">
<path d="M12.632 1.292C12.1933 1.488 11.708 1.62333 11.176 1.698C11.4373 1.54867 11.6613 1.35267 11.848 1.11C12.044 0.867333 12.1887 0.596666 12.282 0.298C11.806 0.596666 11.274 0.802 10.686 0.913999C10.462 0.661999 10.1867 0.465999 9.86 0.325999C9.54267 0.186 9.20667 0.116 8.852 0.116C8.39467 0.116 7.97467 0.232666 7.592 0.465999C7.20933 0.69 6.906 0.993333 6.682 1.376C6.458 1.75867 6.346 2.17867 6.346 2.636C6.346 2.86 6.36467 3.05133 6.402 3.21C5.37533 3.154 4.40933 2.89267 3.504 2.426C2.61733 1.96867 1.85667 1.35267 1.222 0.577999C0.998 0.979333 0.886 1.39933 0.886 1.838C0.886 2.26733 0.984 2.66867 1.18 3.042C1.38533 3.406 1.66067 3.70467 2.006 3.938C1.59533 3.92867 1.21733 3.82133 0.872 3.616V3.658C0.872 4.26467 1.05867 4.79667 1.432 5.254C1.81467 5.71133 2.3 6.00067 2.888 6.122C2.68267 6.178 2.45867 6.206 2.216 6.206C2.048 6.206 1.894 6.192 1.754 6.164C1.91267 6.668 2.20667 7.08333 2.636 7.41C3.06533 7.72733 3.55067 7.89067 4.092 7.9C3.66267 8.24533 3.17733 8.51133 2.636 8.698C2.104 8.88467 1.54867 8.978 0.97 8.978C0.848667 8.978 0.662 8.96867 0.41 8.95H0.368C1.53467 9.69667 2.82267 10.07 4.232 10.07C5.34267 10.07 6.36467 9.85533 7.298 9.426C8.15667 9.02467 8.90333 8.46467 9.538 7.746C10.126 7.074 10.5833 6.30867 10.91 5.45C11.218 4.61933 11.372 3.77933 11.372 2.93V2.594C11.8667 2.23933 12.2867 1.80533 12.632 1.292Z" fill="white"/>
</svg>
