<svg width="13" height="12" viewBox="0 0 13 12" fill="none" xmlns="http://www.w3.org/2000/svg">
<path d="M11.713 6.769C11.7563 6.483 11.778 6.21 11.778 5.95C11.778 4.99667 11.5397 4.10833 11.063 3.285C10.595 2.48767 9.96233 1.855 9.165 1.387C8.34167 0.910333 7.45333 0.671999 6.5 0.671999C6.24 0.671999 5.967 0.693666 5.681 0.736999C5.15233 0.416333 4.59333 0.255999 4.004 0.255999C3.42333 0.255999 2.89033 0.398999 2.405 0.684999C1.91967 0.970999 1.534 1.361 1.248 1.855C0.962 2.34033 0.819 2.87333 0.819 3.454C0.819 4.06067 0.975 4.61533 1.287 5.118C1.24367 5.42133 1.222 5.69867 1.222 5.95C1.222 6.90333 1.46033 7.79167 1.937 8.615C2.405 9.41233 3.03767 10.045 3.835 10.513C4.65833 10.9897 5.54667 11.228 6.5 11.228C6.76 11.228 7.033 11.2063 7.319 11.163C7.83033 11.475 8.38933 11.631 8.996 11.631C9.57667 11.631 10.1097 11.488 10.595 11.202C11.0803 10.916 11.466 10.5303 11.752 10.045C12.038 9.551 12.181 9.018 12.181 8.446C12.1897 7.86533 12.0337 7.30633 11.713 6.769ZM9.009 8.355C8.775 8.68433 8.44567 8.93567 8.021 9.109C7.59633 9.28233 7.08933 9.369 6.5 9.369C5.78933 9.369 5.20867 9.24767 4.758 9.005C4.43733 8.823 4.173 8.58467 3.965 8.29C3.757 7.98667 3.653 7.69633 3.653 7.419C3.653 7.25433 3.71367 7.11133 3.835 6.99C3.965 6.86867 4.12967 6.808 4.329 6.808C4.485 6.808 4.61933 6.85133 4.732 6.938C4.84467 7.05067 4.93567 7.18933 5.005 7.354C5.10033 7.562 5.2 7.73533 5.304 7.874C5.408 8.01267 5.54667 8.12533 5.72 8.212C5.902 8.29867 6.149 8.342 6.461 8.342C6.88567 8.342 7.228 8.251 7.488 8.069C7.748 7.887 7.878 7.666 7.878 7.406C7.878 7.198 7.80433 7.02467 7.657 6.886C7.51833 6.74733 7.34067 6.64767 7.124 6.587C7.00267 6.54367 6.773 6.483 6.435 6.405L6.214 6.353C5.71133 6.249 5.28233 6.12333 4.927 5.976C4.57167 5.82 4.29433 5.612 4.095 5.352C3.89567 5.092 3.796 4.77567 3.796 4.403C3.796 4.02167 3.9 3.69233 4.108 3.415C4.32467 3.129 4.63667 2.908 5.044 2.752C5.46 2.596 5.941 2.518 6.487 2.518C6.929 2.518 7.306 2.57 7.618 2.674C7.93867 2.778 8.203 2.91667 8.411 3.09C8.62767 3.25467 8.78367 3.428 8.879 3.61C8.983 3.792 9.035 3.96967 9.035 4.143C9.035 4.31633 8.97433 4.468 8.853 4.598C8.73167 4.728 8.57133 4.793 8.372 4.793C8.20733 4.793 8.07733 4.754 7.982 4.676C7.904 4.60667 7.80867 4.481 7.696 4.299C7.57467 4.04767 7.423 3.857 7.241 3.727C7.07633 3.58833 6.79033 3.519 6.383 3.519C6.019 3.519 5.72433 3.597 5.499 3.753C5.28233 3.90033 5.174 4.06933 5.174 4.26C5.174 4.37267 5.20867 4.48533 5.278 4.598C5.356 4.68467 5.46 4.76267 5.59 4.832C5.746 4.90133 5.88467 4.95333 6.006 4.988C6.214 5.04867 6.43933 5.105 6.682 5.157C7.15 5.261 7.514 5.36067 7.774 5.456C8.112 5.56867 8.38933 5.69433 8.606 5.833C8.84867 5.99767 9.03067 6.19267 9.152 6.418C9.282 6.64333 9.347 6.925 9.347 7.263C9.347 7.66167 9.23433 8.02567 9.009 8.355Z" fill="#681C6B"/>
</svg>
