<svg width="11" height="14" viewBox="0 0 11 14" fill="none" xmlns="http://www.w3.org/2000/svg">
<path d="M5.815 0.679999C4.685 0.679999 3.685 0.929999 2.815 1.43C2.055 1.87 1.455 2.465 1.015 3.215C0.615 3.915 0.415 4.64 0.415 5.39C0.415 6.07 0.54 6.66 0.79 7.16C1.06 7.7 1.45 8.07 1.96 8.27C2.05 8.31 2.13 8.315 2.2 8.285C2.27 8.255 2.315 8.19 2.335 8.09L2.5 7.49C2.52 7.39 2.52 7.315 2.5 7.265C2.49 7.215 2.45 7.15 2.38 7.07C2.05 6.67 1.885 6.175 1.885 5.585C1.885 4.945 2.035 4.35 2.335 3.8C2.645 3.24 3.075 2.8 3.625 2.48C4.205 2.14 4.865 1.97 5.605 1.97C6.265 1.97 6.835 2.1 7.315 2.36C7.775 2.6 8.125 2.94 8.365 3.38C8.615 3.81 8.74 4.305 8.74 4.865C8.74 5.595 8.64 6.265 8.44 6.875C8.24 7.485 7.96 7.965 7.6 8.315C7.23 8.685 6.81 8.87 6.34 8.87C6.08 8.87 5.85 8.805 5.65 8.675C5.45 8.545 5.3 8.37 5.2 8.15C5.11 7.92 5.095 7.675 5.155 7.415C5.215 7.175 5.32 6.815 5.47 6.335C5.59 5.945 5.675 5.66 5.725 5.48C5.795 5.18 5.83 4.935 5.83 4.745C5.83 4.415 5.745 4.15 5.575 3.95C5.395 3.72 5.14 3.605 4.81 3.605C4.54 3.605 4.295 3.69 4.075 3.86C3.855 4.03 3.68 4.265 3.55 4.565C3.42 4.865 3.355 5.2 3.355 5.57C3.355 5.78 3.375 5.985 3.415 6.185C3.445 6.335 3.485 6.475 3.535 6.605L3.595 6.755L2.62 10.865C2.45 11.595 2.44 12.52 2.59 13.64L2.605 13.73C2.615 13.77 2.64 13.795 2.68 13.805C2.72 13.815 2.755 13.805 2.785 13.775L2.83 13.73C3.51 12.83 3.95 12.02 4.15 11.3L4.675 9.23C4.805 9.49 5.045 9.715 5.395 9.905C5.745 10.085 6.12 10.175 6.52 10.175C7.31 10.175 8.02 9.945 8.65 9.485C9.25 9.045 9.72 8.435 10.06 7.655C10.41 6.865 10.585 5.98 10.585 5C10.585 4.25 10.385 3.545 9.985 2.885C9.585 2.215 9.035 1.69 8.335 1.31C7.585 0.889999 6.745 0.679999 5.815 0.679999Z" fill="white"/>
</svg>
