<svg width="10" height="9" viewBox="0 0 10 9" fill="none" xmlns="http://www.w3.org/2000/svg">
<path d="M0.568 4.248H6.056L4.008 2.2C3.944 2.12533 3.912 2.04 3.912 1.944C3.912 1.848 3.944 1.76267 4.008 1.688L4.872 0.839999C4.94667 0.765333 5.032 0.728 5.128 0.728C5.224 0.728 5.30933 0.765333 5.384 0.839999L9.688 5.144C9.76267 5.21867 9.8 5.304 9.8 5.4C9.8 5.496 9.76267 5.58133 9.688 5.656L5.384 9.96C5.30933 10.0347 5.224 10.072 5.128 10.072C5.032 10.072 4.94667 10.0347 4.872 9.96L4.008 9.112C3.944 9.03733 3.912 8.952 3.912 8.856C3.912 8.76 3.944 8.67467 4.008 8.6L6.2 6.408H0.568C0.461334 6.408 0.370667 6.376 0.296 6.312C0.232 6.23733 0.2 6.14667 0.2 6.04V4.6C0.2 4.504 0.232 4.424 0.296 4.36C0.370667 4.28533 0.461334 4.248 0.568 4.248Z" fill="white"/>
</svg>
